<svg xmlns="http://www.w3.org/2000/svg" xmlns:xlink="http://www.w3.org/1999/xlink" width="49" height="48" viewBox="0 0 49 48"><defs><path id="a" d="M37.0397392,6.61472873 C33.0236549,1.44544323 27.2920238,-0.208199619 21.9557144,0.0204848555 C17.2118546,0.223759944 12.7812686,1.91297593 10.1472117,3.94166132 C3.07084769,9.39248282 5.99153942,16.2662299 5.00483364,18.1272134 C4.01812786,19.9871804 2.00422513,22.8005077 0.316382848,25.4390183 C-1.04753011,27.571374 2.34413782,28.6395846 3.92116217,28.8103357 C3.93075219,29.5949775 4.51574298,32.1633583 4.80664004,34.9787182 C5.09860266,37.7930618 6.17374967,39.2535934 9.13812924,39.1377266 C12.1025088,39.0218598 16.8431719,38.6986524 16.8431719,38.6986524 L17.023251,45.5988252 C17.023251,45.5988252 19.406902,48.2668108 26.4374471,47.9781602 C33.4690577,47.6895095 36.2576204,45.1607674 36.2576204,45.1607674 L35.2378823,29.2483935 C35.2378823,29.2483935 44.6254395,16.3810804 37.0397392,6.61472873 M37.0237559,15.4897191 C37.0237559,20.5441542 34.2383899,26.1525139 29.9612441,24.731621 C28.1391416,24.1258613 23.3867574,18.30203 21.6189984,17.1342146 C16.7440751,13.9153535 11.4439946,15.0740215 11.4439946,9.86713015 C11.4439946,4.80862957 18.6343732,2.0715305 27.8226712,4.19778793 C33.119555,5.42353671 37.0237559,10.4322349 37.0237559,15.4897191"/></defs><use xlink:href="#a" fill="#949494" fill-rule="evenodd" transform="translate(4.943)"/></svg>