<?xml version="1.0" encoding="UTF-8"?>
<svg width="14px" height="17px" viewBox="0 0 14 17" version="1.1" xmlns="http://www.w3.org/2000/svg" xmlns:xlink="http://www.w3.org/1999/xlink">
    <title>headset_949494_16x16</title>
    <defs>
        <path d="M8,0 C11.7211538,0 14.7692308,3.04807692 14.7692308,6.76923077 L14.7692308,6.76923077 L14.7692308,10.4615385 C14.7692308,11.4735569 13.9350954,12.3076923 12.9230769,12.3076923 L12.9230769,12.3076923 L11.0769231,12.3076923 L11.0769231,6.76923077 L13.5384615,6.76923077 C13.5384615,3.72115385 11.0480769,1.23076923 8,1.23076923 C4.95192308,1.23076923 2.46153846,3.72115385 2.46153846,6.76923077 L2.46153846,6.76923077 L4.92307692,6.76923077 L4.92307692,12.3076923 L3.69230769,12.3076923 C3.69230769,13.3269231 4.51923077,14.1538462 5.53846154,14.1538462 L5.53846154,14.1538462 L6.32692308,14.1538462 C6.54086462,13.7860578 6.93028923,13.5384615 7.38461538,13.5384615 L7.38461538,13.5384615 L8.61538462,13.5384615 C9.29327077,13.5384615 9.84615385,14.0913462 9.84615385,14.7692308 C9.84615385,15.4471154 9.29327077,16 8.61538462,16 L8.61538462,16 L7.38461538,16 C6.93028923,16 6.54086462,15.7524038 6.32692308,15.3846154 L6.32692308,15.3846154 L5.53846154,15.3846154 C3.84855754,15.3846154 2.46153846,13.9975963 2.46153846,12.3076923 L2.46153846,12.3076923 L2.46153846,12.1923077 C1.75,11.9350954 1.23076923,11.2572123 1.23076923,10.4615385 L1.23076923,10.4615385 L1.23076923,6.76923077 C1.23076923,3.04807692 4.27884615,0 8,0 Z M3.69230769,8 L2.46153846,8 L2.46153846,10.4615385 C2.46153846,10.8028831 2.73557692,11.0769231 3.07692308,11.0769231 L3.07692308,11.0769231 L3.69230769,11.0769231 L3.69230769,8 Z M13.5384615,8 L12.3076923,8 L12.3076923,11.0769231 L12.9230769,11.0769231 C13.2644246,11.0769231 13.5384615,10.8028831 13.5384615,10.4615385 L13.5384615,10.4615385 L13.5384615,8 Z" id="path-1"></path>
    </defs>
    <g id="HealthcareHelper-Life" stroke="none" stroke-width="1" fill="none" fill-rule="evenodd">
        <g id="HealthcareHelper-Life---Employees" transform="translate(-1251.000000, -348.000000)">
            <g id="Group-8-Copy" transform="translate(1019.500000, 338.000000)">
                <g id="Toolbar" transform="translate(24.500000, 10.805257)">
                    <g id="Iconography-/-Document-/-Submit-Resume" transform="translate(206.000000, 0.000000)">
                        <mask id="mask-2" fill="white">
                            <use xlink:href="#path-1"></use>
                        </mask>
                        <use id="Shape" fill="#949494" xlink:href="#path-1"></use>
                    </g>
                </g>
            </g>
        </g>
    </g>
</svg>
