<svg xmlns="http://www.w3.org/2000/svg" xmlns:xlink="http://www.w3.org/1999/xlink" width="49" height="48" viewBox="0 0 49 48"><defs><path id="a" d="M42.8571415,1.77635684e-15 C45.6763385,1.77635684e-15 48,2.30429333 48,5.1 L48,5.1 L48,28.9 C48,31.6957029 45.6763385,34 42.8571415,34 L42.8571415,34 L5.14285754,34 C2.32366062,34 0,31.6957029 0,28.9 L0,28.9 L0,5.1 C0,2.30429333 2.32366062,1.77635684e-15 5.14285754,1.77635684e-15 L5.14285754,1.77635684e-15 L42.8571415,1.77635684e-15 Z M42.8571415,3.4 L5.14285754,3.4 C4.17187477,3.4 3.42857169,4.13711056 3.42857169,5.1 L3.42857169,5.1 L3.42857169,28.9 C3.42857169,29.8628904 4.17187477,30.6 5.14285754,30.6 L5.14285754,30.6 L42.8571415,30.6 C43.8281262,30.6 44.5714246,29.8628904 44.5714246,28.9 L44.5714246,28.9 L44.5714246,5.1 C44.5714246,4.13711056 43.8281262,3.4 42.8571415,3.4 L42.8571415,3.4 Z M15.4285754,6.8 C19.1986615,6.8 22.2857169,9.86133167 22.2857169,13.6 C22.2857169,15.4925817 21.4687477,17.1992211 20.1964246,18.434375 C22.4799138,19.9683606 24,22.578125 24,25.5 L24,25.5 L20.5714246,25.5 C20.5714246,22.6644567 18.2879446,20.4 15.4285754,20.4 C12.5691969,20.4 10.2857169,22.6644567 10.2857169,25.5 L10.2857169,25.5 L6.85714246,25.5 C6.85714246,22.578125 8.37723231,19.9683606 10.6607169,18.434375 C9.38839385,17.1992211 8.57142831,15.4925817 8.57142831,13.6 C8.57142831,9.86133167 11.65848,6.8 15.4285754,6.8 Z M36,22.1 L36,25.5 L27.4285754,25.5 L27.4285754,22.1 L36,22.1 Z M41.1428585,15.3 L41.1428585,18.7 L27.4285754,18.7 L27.4285754,15.3 L41.1428585,15.3 Z M15.4285754,10.2 C13.5133938,10.2 12,11.7007789 12,13.6 C12,15.4992211 13.5133938,17 15.4285754,17 C17.3437477,17 18.8571415,15.4992211 18.8571415,13.6 C18.8571415,11.7007789 17.3437477,10.2 15.4285754,10.2 Z M41.1428585,8.5 L41.1428585,11.9 L27.4285754,11.9 L27.4285754,8.5 L41.1428585,8.5 Z"/></defs><use xlink:href="#a" fill="#949494" fill-rule="evenodd" transform="translate(.943 8)"/></svg>