<svg xmlns="http://www.w3.org/2000/svg" xmlns:xlink="http://www.w3.org/1999/xlink" width="48" height="48" viewBox="0 0 48 48"><defs><path id="a" d="M24,0 C37.2343754,0 48,10.7656246 48,24 C48,37.2343754 37.2343754,48 24,48 C10.7656246,48 0,37.2343754 0,24 L0,24 L4,24 C4,35.0703138 12.9296862,44 24,44 C35.0703138,44 44,35.0703138 44,24 C44,12.9296862 35.0703138,4 24,4 C16.5937477,4 10.2031292,8.03905846 6.75,14 L6.75,14 L14,14 L14,18 L0,18 L0,4 L4,4 L4,10.6874954 C8.30468769,4.22656615 15.6640615,0 24,0 Z M25.9999969,8.00000308 L25.9999969,22.0000031 L35.9999969,22.0000031 L35.9999969,26.0000031 L21.9999969,26.0000031 L21.9999969,8.00000308 L25.9999969,8.00000308 Z"/></defs><use xlink:href="#a" fill="#949494" fill-rule="evenodd"/></svg>